<svg xmlns="http://www.w3.org/2000/svg" width="136.719" height="37" viewBox="0 0 136.719 37">
  <metadata><?xpacket begin="﻿" id="W5M0MpCehiHzreSzNTczkc9d"?>
<x:xmpmeta xmlns:x="adobe:ns:meta/" x:xmptk="Adobe XMP Core 5.6-c138 79.159824, 2016/09/14-01:09:01        ">
   <rdf:RDF xmlns:rdf="http://www.w3.org/1999/02/22-rdf-syntax-ns#">
      <rdf:Description rdf:about=""/>
   </rdf:RDF>
</x:xmpmeta>
                                                                                                    
                                                                                                    
                                                                                                    
                                                                                                    
                                                                                                    
                                                                                                    
                                                                                                    
                                                                                                    
                                                                                                    
                                                                                                    
                                                                                                    
                                                                                                    
                                                                                                    
                                                                                                    
                                                                                                    
                                                                                                    
                                                                                                    
                                                                                                    
                                                                                                    
                                                                                                    
                           
<?xpacket end="w"?></metadata>
<defs>
    <style>
      .cls-1 {
        fill: #1d293f;
      }

      .cls-1, .cls-3 {
        fill-rule: evenodd;
      }

      .cls-2 {
        fill: #6a26da;
      }

      .cls-3 {
        fill: #fff;
      }
    </style>
  </defs>
  <path id="Saaskit" class="cls-1" d="M431.89,73.24c4.08,0,6.779-2.31,6.779-5.94,0-3.51-2.759-4.77-5.669-6.42-2.7-1.35-3.72-1.98-3.72-3.39a2.033,2.033,0,0,1,2.31-2.1,2.528,2.528,0,0,1,2.76,2.52v0.54a0.347,0.347,0,0,0,.36.36h3.449a0.347,0.347,0,0,0,.36-0.36v-0.6c0-3.63-2.789-6.09-6.869-6.09-3.87,0-6.54,2.22-6.54,5.76,0,3.75,3.03,5.31,5.7,6.66,2.46,1.26,3.66,1.89,3.66,3.3a2.114,2.114,0,0,1-2.4,2.13,2.554,2.554,0,0,1-2.82-2.46v-0.6a0.347,0.347,0,0,0-.36-0.36h-3.45a0.347,0.347,0,0,0-.36.36v0.81C425.08,70.87,427.78,73.24,431.89,73.24Zm14.82-15.9c-3.42,0-5.91,1.86-6.12,4.62a0.288,0.288,0,0,0,.33.33l3.63,0.21a0.392,0.392,0,0,0,.42-0.3,1.652,1.652,0,0,1,1.77-1.23,1.829,1.829,0,0,1,1.98,1.98v0.69a0.142,0.142,0,0,1-.15.15h-2.22c-3.75,0-6.12,1.35-6.12,4.89,0,3.57,2.4,4.56,4.71,4.56a4.371,4.371,0,0,0,3.6-1.47c0.09-.12.18-0.06,0.18,0.06v0.81a0.347,0.347,0,0,0,.36.36h3.509a0.347,0.347,0,0,0,.36-0.36V62.41C452.949,59.441,450.4,57.341,446.71,57.341Zm-0.45,12.69a1.562,1.562,0,0,1-1.74-1.62c0-1.2.93-1.86,2.34-1.86h1.71a0.142,0.142,0,0,1,.15.15v1.26A2.235,2.235,0,0,1,446.26,70.03Zm15.029-12.69c-3.419,0-5.909,1.86-6.119,4.62a0.288,0.288,0,0,0,.33.33l3.63,0.21a0.391,0.391,0,0,0,.419-0.3,1.652,1.652,0,0,1,1.77-1.23,1.829,1.829,0,0,1,1.98,1.98v0.69a0.142,0.142,0,0,1-.15.15h-2.22c-3.749,0-6.119,1.35-6.119,4.89,0,3.57,2.4,4.56,4.71,4.56a4.371,4.371,0,0,0,3.6-1.47c0.09-.12.18-0.06,0.18,0.06v0.81a0.347,0.347,0,0,0,.36.36h3.51a0.347,0.347,0,0,0,.36-0.36V62.41C467.529,59.441,464.979,57.341,461.289,57.341Zm-0.45,12.69a1.561,1.561,0,0,1-1.739-1.62c0-1.2.929-1.86,2.339-1.86h1.71a0.142,0.142,0,0,1,.15.15v1.26A2.235,2.235,0,0,1,460.839,70.03Zm14.85,3.18c3.6,0,6-1.71,6-4.62,0-2.85-2.4-3.87-4.5-4.56-1.71-.6-3.42-0.84-3.42-2.01a1.568,1.568,0,0,1,1.8-1.35,1.656,1.656,0,0,1,1.92,1.47v0.21a0.321,0.321,0,0,0,.36.24h3.21a0.324,0.324,0,0,0,.36-0.33c0-2.94-2.31-4.89-5.91-4.89-3.45,0-5.79,1.8-5.79,4.77,0,2.85,2.22,3.93,4.05,4.56,1.8,0.72,3.69.87,3.69,2.04a1.55,1.55,0,0,1-1.8,1.32c-1.17,0-2.04-.63-2.04-1.5V68.35a0.306,0.306,0,0,0-.36-0.21h-3.33a0.347,0.347,0,0,0-.36.36v0.24C469.569,71.38,471.939,73.21,475.689,73.21Zm8.4-.21h3.51a0.347,0.347,0,0,0,.36-0.36V68.38a0.426,0.426,0,0,1,.06-0.18l1.44-1.98a0.11,0.11,0,0,1,.21.03l2.43,6.45a0.424,0.424,0,0,0,.42.3h3.689a0.273,0.273,0,0,0,.27-0.42L492.4,63.16a0.256,0.256,0,0,1,0-.21l3.54-4.92c0.179-.24.09-0.45-0.21-0.45h-3.81a0.426,0.426,0,0,0-.42.21l-3.36,4.65c-0.09.12-.18,0.06-0.18-0.06V52.361A0.347,0.347,0,0,0,487.6,52h-3.51a0.347,0.347,0,0,0-.36.36V72.64A0.347,0.347,0,0,0,484.089,73Zm16.68-16.889a2.5,2.5,0,1,0-2.52-2.52A2.393,2.393,0,0,0,500.769,56.111ZM499,73h3.51a0.347,0.347,0,0,0,.36-0.36v-14.7a0.347,0.347,0,0,0-.36-0.36H499a0.347,0.347,0,0,0-.36.36v14.7A0.347,0.347,0,0,0,499,73Zm14.729-12.6v-2.46a0.347,0.347,0,0,0-.36-0.36h-2.31a0.142,0.142,0,0,1-.15-0.15v-3.45a0.347,0.347,0,0,0-.36-0.36h-3.329a0.347,0.347,0,0,0-.36.36v3.45a0.142,0.142,0,0,1-.15.15h-1.38a0.347,0.347,0,0,0-.36.36V60.4a0.347,0.347,0,0,0,.36.36h1.38a0.142,0.142,0,0,1,.15.15v8.34c0,3.09,1.829,3.72,4.679,3.72,0.48,0,.99,0,1.5-0.03a0.331,0.331,0,0,0,.36-0.36V69.67a0.347,0.347,0,0,0-.36-0.36h-0.6c-1.02.03-1.53-.45-1.53-1.71v-6.69a0.142,0.142,0,0,1,.15-0.15h2.31A0.347,0.347,0,0,0,513.728,60.4Z" transform="translate(-377 -44)"/>
  <g>
    <path id="Rounded_Rectangle_1" data-name="Rounded Rectangle 1" class="cls-2" d="M3,0H34a3,3,0,0,1,3,3V27A10,10,0,0,1,27,37H3a3,3,0,0,1-3-3V3A3,3,0,0,1,3,0Z"/>
    <path id="S." class="cls-3" d="M391.89,73.24c4.08,0,6.779-2.31,6.779-5.94,0-3.51-2.759-4.77-5.669-6.42-2.7-1.35-3.72-1.98-3.72-3.39a2.033,2.033,0,0,1,2.31-2.1,2.528,2.528,0,0,1,2.76,2.52v0.54a0.347,0.347,0,0,0,.36.36h3.449a0.347,0.347,0,0,0,.36-0.36v-0.6c0-3.63-2.789-6.09-6.869-6.09-3.87,0-6.54,2.22-6.54,5.76,0,3.75,3.03,5.31,5.7,6.66,2.46,1.26,3.66,1.89,3.66,3.3a2.114,2.114,0,0,1-2.4,2.13,2.554,2.554,0,0,1-2.82-2.46v-0.6a0.347,0.347,0,0,0-.36-0.36h-3.45a0.347,0.347,0,0,0-.36.36v0.81C385.08,70.87,387.78,73.24,391.89,73.24Zm11.52-.12a2.588,2.588,0,0,0,2.669-2.61,2.656,2.656,0,0,0-5.309,0A2.581,2.581,0,0,0,403.41,73.12Z" transform="translate(-377 -44)"/>
  </g>
</svg>
