<?xml version="1.0" encoding="utf-8"?>
<!-- Generator: Adobe Illustrator 19.0.0, SVG Export Plug-In . SVG Version: 6.00 Build 0)  -->
<svg version="1.1" id="a90b5256-b423-42d1-825d-5fdc0dc55c5f"
	 xmlns="http://www.w3.org/2000/svg" xmlns:xlink="http://www.w3.org/1999/xlink" x="0px" y="0px" viewBox="136 90.9 883 612.1"
	 style="enable-background:new 136 90.9 883 612.1;" xml:space="preserve">
<style type="text/css">
	.st0{fill:#E6E6E6;}
	.st1{fill:#FFFFFF;}
	.st2{fill:#6A26DA;}
	.st3{fill:#A0616A;}
	.st4{fill:#2F2E41;}
	.st5{opacity:0.2;enable-background:new    ;}
	.st6{fill:#3F3D56;}
	.st7{fill:#F2F2F2;}
	.st8{fill:#6C63FF;}
	.st9{fill:#B3B3B3;}
</style>
<path class="st0" d="M283.9,621.3c0,0-112.3-51.7-72.9-87.6S283.9,621.3,283.9,621.3z"/>
<path class="st0" d="M281.9,633.3c0,0-51.6-169.6,24.4-161.5S281.9,633.3,281.9,633.3z"/>
<path class="st0" d="M244.3,618.3l2.2,28.4v0.5c0,4.4,0.2,8.9,0.7,13.3c2.9,28.9,15.6,42.1,30.3,42.1s26.9-13.2,29.8-42.1
	c0.4-4.4,0.7-8.8,0.7-13.3v-0.4v-0.1l2.2-28.4H244.3z"/>
<path class="st1" d="M308,646.7L308,646.7v0.5c0,4.4-0.2,8.9-0.7,13.3h-60.1c-0.4-4.4-0.7-8.8-0.7-13.3v-0.5H308z"/>
<path class="st0" d="M936.4,638.6c0,0-86.9-40-56.4-67.8S936.4,638.6,936.4,638.6z"/>
<path class="st0" d="M934.9,648c0,0-40-131.3,18.9-125S934.9,648,934.9,648z"/>
<path class="st0" d="M905.7,636.3l1.7,22v0.4c0,3.4,0.2,6.9,0.5,10.3c2.3,22.4,12.1,32.6,23.5,32.6s20.8-10.2,23.1-32.6
	c0.3-3.4,0.5-6.8,0.5-10.3v-0.3v-0.1l1.7-22L905.7,636.3L905.7,636.3z"/>
<path class="st1" d="M955.1,658.3L955.1,658.3v0.4c0,3.4-0.2,6.9-0.5,10.3H908c-0.3-3.4-0.5-6.8-0.5-10.3v-0.4H955.1z"/>
<path class="st0" d="M473.7,273.5v-38.6h-6v38.6c-4.1,1.7-6.1,6.3-4.4,10.4s6.3,6.1,10.4,4.4s6.1-6.3,4.4-10.4
	C477.3,275.9,475.7,274.4,473.7,273.5z"/>
<path class="st0" d="M487.7,663h-41V165h-16v498h-41c-20.4,0-37,16.6-37,37l0,0l0,0h172l0,0C524.7,679.5,508.2,663,487.7,663
	L487.7,663z"/>
<path class="st2" d="M352.8,239h171.8l-10.5-131.3c-0.8-9.4-8.6-16.6-18-16.7H381.4c-9.4,0-17.2,7.3-18,16.7L352.8,239z"/>
<path class="st3" d="M592.1,469.5L592.1,469.5c-6.7-1.1-13.1,3.4-14.2,10.2c0,0.1,0,0.1,0,0.2l-4.8,31.7l16.5,4.4l12.1-29.6
	c2.6-6.3-0.5-13.5-6.8-16.1C593.8,469.9,593,469.6,592.1,469.5z"/>
<path class="st2" d="M591.7,511.5c9.1,36.3,5.2,69.5-28.8,95.6c-40.8-11.2-67.9-38.4-84.5-77.8c-4.2-10,0.5-21.6,10.5-25.8
	c0.3-0.1,0.5-0.2,0.8-0.3l0,0c7.7-2.8,16.3-0.6,21.7,5.6l40,46.2l18.8-46.6L591.7,511.5z"/>
<path class="st0" d="M800.8,702c-37.3-2-60.4-14.8-66-41l6-11l68.7,31.3c4.8,2.2,7,7.9,4.8,12.7c-1.1,2.3-3,4.2-5.4,5L800.8,702z"/>
<path class="st0" d="M772,702.2c-19.4-0.6-38-0.4-55.6,0.8c-6.4,0.4-12-4.4-12.5-10.8l-1.1-13.2l-15-24l13-13
	c21.8,21.8,45.8,40,74.3,50.9c2.3,1.6,2.9,4.8,1.3,7.1C775.4,701.4,773.7,702.3,772,702.2z"/>
<path class="st4" d="M666.8,608c-24.7,44.2-49,74-81,90c-39.3,13-68.1-4.2-90.5-39.5l65-43l9.5,9.5l86.1-65.5
	c4.4-4.1,11.3-4,15.5,0.3l73.4,90.2l-9,15L666.8,608z"/>
<polygon class="st4" points="688.8,660 654.8,608 662.8,593 707.8,640 "/>
<circle class="st3" cx="492.8" cy="460" r="34"/>
<path class="st3" d="M501.8,523l-38-13c5.6-8.9,8.1-19.5,7-30h31C500,495.2,499.8,509.7,501.8,523z"/>
<path class="st2" d="M582.8,614c-5.7,2.3-6.1,9.9-11.5,12.5c-26,12.5-53.6,22.6-72.5,40.5c-44.2-30-85.2-123.2-32-164
	c18.1,10.6,34.4,18.2,34,0L582.8,614z"/>
<path class="st5" d="M559.8,574l-18.5-6.5L504.8,596l-16.4-58.9c-1.1-4.1-3-2-5.6,0.8c-8-7.4-20.4-6.9-27.8,1.1
	c-3.2,3.4-5,7.8-5.2,12.5c-1.9,42.7,10.9,78.9,43,106.5c41.9-9,59.7-37.3,67-74l-2-1.3C558.5,579.8,559.2,576.9,559.8,574z"/>
<path class="st4" d="M497.4,415.2c11.2,2.6,24,6.2,24.7,9.6c11.5,2.9,20.2,9.9,22,20.5c0.6,3.5-1.8,6.7-5.3,7.3
	c-0.4,0.1-0.7,0.1-1.1,0.1c-6.3-0.1-15.7-0.7-21.9-3.3c-18.1,11.6-21.1,41.9-13.2,62.5l-12.4-1.1l-12.8-37.6l-3.3,36.1l-28.3-3.7
	l3.6-46.1c1.1-10.9,4.8-21.3,10.8-30.4c0.6-0.9,1.3-1.8,2-2.6C470.9,416.5,484.5,412.2,497.4,415.2z"/>
<polygon class="st6" points="561.3,529.4 592.4,566 639.1,510.9 607.5,472.6 "/>
<path class="st7" d="M631.1,512.1l-37-30.3c2.1-5,12.2-3.4,12.2-3.4l29,29.4c1,1,1.9,2.2,2.6,3.4l0,0L631.1,512.1z"/>
<path class="st6" d="M632.8,510l-42.1-32.8L544,547.9l43.9,29.6c4.2,1.7,8.4-1.3,8.4-1.3l42.9-65.6L632.8,510z"/>
<rect x="608.9" y="480.9" transform="matrix(0.5835 -0.8121 0.8121 0.5835 -150.2595 702.0047)" class="st8" width="0.7" height="33.1"/>
<rect x="573.8" y="540.5" transform="matrix(0.5517 -0.8341 0.8341 0.5517 -179.4999 747.7977)" class="st8" width="64" height="0.7"/>
<rect x="569.3" y="541.1" transform="matrix(0.5926 -0.8055 0.8055 0.5926 -218.0803 686.5155)" class="st8" width="0.7" height="35.5"/>
<rect x="540.9" y="514.5" transform="matrix(0.5713 -0.8208 0.8208 0.5713 -176.9404 690.8933)" class="st8" width="64" height="0.7"/>
<rect x="618.5" y="470.8" transform="matrix(0.6762 -0.7367 0.7367 0.6762 -163.1628 615.5634)" class="st9" width="0.4" height="45.2"/>
<rect x="616.4" y="470.6" transform="matrix(0.6618 -0.7497 0.7497 0.6618 -161.6456 629.2784)" class="st9" width="0.4" height="46.4"/>
<rect x="614.9" y="470.6" transform="matrix(0.6403 -0.7681 0.7681 0.6403 -158.2404 650.1968)" class="st9" width="0.4" height="47"/>
<path class="st3" d="M578.1,540.1L578.1,540.1c-5.6-3.9-13.3-2.5-17.2,3.1l-0.1,0.1l-18,26.6l13,11l23.6-21.6
	c5-4.6,5.4-12.4,0.8-17.5C579.5,541.3,578.8,540.6,578.1,540.1z"/>
<path class="st2" d="M559.8,578c-7.3,36.7-25.1,65-67,74c-32-27.6-44.9-63.8-43-106.5c0.5-10.9,9.7-19.3,20.6-18.8
	c0.3,0,0.6,0,0.9,0.1l0,0c8.1,0.7,15,6.4,17.2,14.3l16.4,58.9l36.9-34L559.8,578z"/>
<path class="st0" d="M642.3,182.5c-1.1,0-2,0.9-2,2v156c0,1.1,0.9,2,2,2h130c1.1,0,2-0.9,2-2v-156c0-1.1-0.9-2-2-2H642.3z"/>
<path class="st1" d="M655.8,327h103V198h-103V327z"/>
<path class="st0" d="M858.7,223.5c-0.7,0-1.2,0.5-1.2,1.2v77.6c0,0.7,0.5,1.2,1.2,1.2h93.1c0.7,0,1.2-0.5,1.2-1.2v-77.6
	c0-0.7-0.5-1.2-1.2-1.2L858.7,223.5z"/>
<path class="st1" d="M866.8,232.7v61.5h77v-61.5H866.8z"/>
<path class="st0" d="M725.5,193.5h-36.4c-2.8,0-5-2.2-5-5c0-0.9,0.2-1.8,0.7-2.5l18.2-31.5v-0.1c0.8-1.4,2.2-2.3,3.8-2.4l0,0
	c0.2,0,0.3,0,0.5,0c1.8,0,3.4,0.9,4.3,2.5l18.2,31.5c1.4,2.4,0.6,5.4-1.8,6.8C727.2,193.2,726.4,193.5,725.5,193.5L725.5,193.5z
	 M688.1,188.5c0,0.2,0,0.4,0.1,0.5c0.2,0.3,0.5,0.5,0.9,0.5h36.4c0.4,0,0.7-0.2,0.9-0.5c0.1-0.2,0.1-0.3,0.1-0.5s0-0.3-0.1-0.5
	l-18.2-31.5c-0.3-0.5-0.9-0.6-1.4-0.4c-0.2,0.1-0.3,0.2-0.4,0.4L688.2,188C688.1,188.1,688.1,188.3,688.1,188.5z"/>
<circle class="st0" cx="707.3" cy="158.5" r="3"/>
<path class="st0" d="M915.1,226h-19.7c-1.5,0-2.7-1.2-2.7-2.7c0-0.5,0.1-1,0.4-1.4l9.9-17.1l0,0c0.4-0.7,1.2-1.2,2.1-1.3l0,0
	c0.1,0,0.2,0,0.3,0c1,0,1.9,0.5,2.3,1.4l9.9,17.1c0.7,1.3,0.3,3-1,3.7C916.1,225.8,915.6,226,915.1,226L915.1,226z M894.9,223.2
	c0,0.1,0,0.2,0.1,0.3c0.1,0.2,0.3,0.3,0.5,0.3h19.7c0.2,0,0.4-0.1,0.5-0.3c0-0.1,0.1-0.2,0.1-0.3s0-0.2-0.1-0.3l-9.9-17.1
	c-0.1-0.3-0.5-0.3-0.7-0.2c-0.1,0-0.2,0.1-0.2,0.2l-9.9,17.1C894.9,223.1,894.9,223.2,894.9,223.2L894.9,223.2z"/>
<circle class="st0" cx="905.3" cy="207" r="1.6"/>
<path class="st0" d="M657,277.8c2.9-6.7,8.4-11.8,15.3-14.3c7.1-2.7,15.1-2.3,21.8,1.4c7.8,4.1,14,10.7,22,14.6
	c7.7,3.8,16.2,5.8,24.8,5.8c9.7,0.1,19.3-2.4,27.8-7.2c0.7-0.4,0.9-1.4,0.5-2.1s-1.3-0.9-2-0.5c-15.6,8.7-34.5,9.1-50.4,0.9
	c-8-4.2-14.3-10.9-22.4-14.8c-6.9-3.4-15-3.8-22.2-1.2c-8.1,2.7-14.7,8.8-18,16.7C653.3,278.8,656.2,279.6,657,277.8L657,277.8z"/>
<path class="st0" d="M654.6,305.9c16.6-3.7,33.9-3.7,50.5,0.2c14.8,3.4,30,9.6,45.2,5c6.8-2.1,13-6.2,16.5-12.5
	c0.9-1.7-1.7-3.2-2.6-1.5c-6.6,11.9-22,13.9-34.2,12c-8.1-1.3-16-3.9-24-5.8c-17.2-4-35.1-4.1-52.4-0.2
	C651.9,303.4,652.7,306.3,654.6,305.9L654.6,305.9z"/>
<path class="st0" d="M653.5,238.8c16-2.7,32.3-2.1,48,1.7c14.7,3.6,29.1,11.8,44.6,10.4c7.2-0.7,14.3-3.3,19.2-8.8
	c1.3-1.4-0.8-3.6-2.1-2.1c-4.2,4.7-10.3,7.2-16.5,7.9c-7.2,0.8-14.2-0.7-21.1-2.8c-7.6-2.3-14.9-5.3-22.6-7.2
	c-16.5-4.1-33.6-4.8-50.3-1.9C650.8,236.3,651.6,239.1,653.5,238.8L653.5,238.8z"/>
<path class="st0" d="M880.2,231.7c6.9,7.1,11.7,15.9,13.7,25.6c3.2,15.6-0.9,31.7-11.2,43.9c-1.2,1.5,0.9,3.6,2.1,2.1
	c6.9-8.1,11.3-18.1,12.7-28.7c2-16.5-3.6-33.1-15.3-45C881,228.2,878.8,230.3,880.2,231.7L880.2,231.7z"/>
<path class="st0" d="M925.2,225.3c-9.2,6.7-14.3,17.6-15.1,28.9c-0.8,11.7,3.7,23,10.9,32.1c4.2,5.2,9.2,9.8,14.8,13.4
	c1.6,1.1,3.1-1.5,1.5-2.6c-9.2-6-17-14.5-21.2-24.8c-4.1-9.8-4.1-20.9-0.1-30.7c2.2-5.4,5.9-10.2,10.6-13.7
	C928.3,226.8,926.8,224.2,925.2,225.3L925.2,225.3z"/>
<circle class="st0" cx="714.3" cy="241.5" r="14"/>
</svg>
